SplineFontDB: 3.0
FontName: rat
FullName: rat
FamilyName: rat
Weight: Regular
Copyright: Copyright (c) 2015, Lukasz Kucharczyk
UComments: "2015-10-18: Created with FontForge (http://fontforge.org)"
Version: 001.000
ItalicAngle: 0
UnderlinePosition: -102.4
UnderlineWidth: 51.2
Ascent: 819
Descent: 205
InvalidEm: 0
LayerCount: 2
Layer: 0 0 "Back" 1
Layer: 1 0 "Fore" 0
XUID: [1021 471 489024599 11382837]
FSType: 0
OS2Version: 0
OS2_WeightWidthSlopeOnly: 0
OS2_UseTypoMetrics: 1
CreationTime: 1445191964
ModificationTime: 1445373547
OS2TypoAscent: 0
OS2TypoAOffset: 1
OS2TypoDescent: 0
OS2TypoDOffset: 1
OS2TypoLinegap: 92
OS2WinAscent: 0
OS2WinAOffset: 1
OS2WinDescent: 0
OS2WinDOffset: 1
HheadAscent: 0
HheadAOffset: 1
HheadDescent: 0
HheadDOffset: 1
OS2CapHeight: 0
OS2XHeight: 0
MarkAttachClasses: 1
DEI: 91125
Encoding: ISO8859-1
UnicodeInterp: none
NameList: AGL For New Fonts
DisplaySize: -48
AntiAlias: 1
FitToEm: 1
WinInfo: 16 16 4
BeginPrivate: 0
EndPrivate
BeginChars: 256 44

StartChar: A
Encoding: 65 65 0
Width: 731
VWidth: 0
Flags: HMW
LayerCount: 2
Back
Fore
SplineSet
616 455 m 0
 618 451 620 446 620 443 c 0
 620 407 500 409 500 390 c 0
 500 389 500 388 501 387 c 1
 519 324 647 255 706 128 c 1
 708 124 708 119 708 115 c 1
 708 87 682 54 657 54 c 1
 653 54 648 55 644 59 c 1
 511 193 370 366 336 382 c 1
 302 398 266 402 234 402 c 1
 200 402 172 398 154 393 c 1
 146 392 142 381 142 367 c 1
 142 339 144 298 144 251 c 0
 144 235 143 218 143 202 c 8
 142 161 137 111 134 95 c 1
 129 41 134 27 80 20 c 1
 78 20 77 20 74 20 c 1
 35 20 35 86 35 128 c 1
 35 139 35 152 35 161 c 1
 40 240 42 257 53 360 c 1
 55 370 60 389 60 396 c 1
 60 397 60 397 60 398 c 0
 60 434 35 420 27 439 c 0
 25 445 24 453 24 458 c 0
 24 470 28 483 37 493 c 8
 51 510 60 498 84 511 c 1
 104 522 108 556 123 595 c 1
 128 610 131 627 131 641 c 1
 131 667 126 689 126 715 c 1
 126 731 128 751 138 768 c 1
 143 776 152 780 160 780 c 1
 184 780 217 751 236 732 c 1
 325 648 302 576 399 502 c 1
 426 483 453 479 482 479 c 1
 500 479 521 481 539 481 c 1
 571 481 598 477 625 451 c 1
 626 449 615 456 616 455 c 0
201 502 m 0
 209 490 222 488 234 488 c 0
 241 488 250 488 255 488 c 0
 265 488 272 493 272 501 c 0
 272 503 272 517 271 519 c 0
 257 564 243 604 201 624 c 0
 201 624 196 577 196 543 c 0
 196 534 197 509 201 502 c 0
EndSplineSet
Validated: 1
EndChar

StartChar: B
Encoding: 66 66 1
Width: 737
VWidth: 0
Flags: HW
LayerCount: 2
Back
Fore
SplineSet
92 49 m 4
 54 223 52 336 15 541 c 4
 15 542 15 543 15 544 c 4
 15 558 33 567 56 567 c 4
 75 567 99 558 103 543 c 4
 118 487 87 287 183 159 c 4
 187 153 216 148 256 148 c 4
 338 148 468 160 564 185 c 4
 566 186 567 187 567 188 c 4
 567 194 550 209 539 212 c 12
 403 257 189 266 185 307 c 4
 185 310 184 313 184 316 c 4
 184 327 190 337 200 344 c 4
 262 389 402 408 402 465 c 4
 402 474 400 484 394 493 c 4
 302 635 146 540 -9 613 c 4
 -47 630 -73 652 -84 692 c 20
 -84 695 -85 697 -85 699 c 4
 -85 715 -64 731 -46 731 c 4
 -45 731 -44 731 -43 731 c 12
 -12 729 -12 693 17 684 c 4
 159 631 256 658 392 591 c 20
 445 564 482 523 482 465 c 4
 482 463 482 462 482 460 c 12
 480 400 407 394 381 339 c 4
 380 338 380 336 380 335 c 4
 380 322 417 317 435 314 c 4
 553 294 620 293 713 219 c 4
 720 214 724 205 724 196 c 4
 724 162 679 112 643 108 c 4
 439 82 269 57 187 34 c 4
 163 27 142 18 126 18 c 4
 111 18 97 24 92 49 c 4
EndSplineSet
Validated: 1
EndChar

StartChar: C
Encoding: 67 67 2
Width: 827
VWidth: 0
Flags: HW
LayerCount: 2
Back
Fore
SplineSet
752 157 m 0
 636 119 557 86 452 86 c 0
 429 86 409 87 383 90 c 0
 215 110 132 148 53 262 c 0
 46 272 43 286 43 299 c 0
 43 323 51 346 62 362 c 0
 190 540 321 614 507 651 c 16
 516 653 525 654 534 654 c 0
 563 654 588 643 595 606 c 0
 596 603 596 601 596 598 c 0
 596 565 547 565 517 556 c 0
 414 522 384 511 297 458 c 0
 230 416 183 354 142 314 c 0
 138 310 136 305 136 300 c 0
 136 280 166 253 184 243 c 0
 268 200 311 195 396 188 c 16
 410 187 425 186 438 186 c 0
 499 186 546 200 614 206 c 0
 646 208 669 214 695 214 c 0
 709 214 725 212 741 206 c 0
 752 202 761 184 761 172 c 0
 761 165 759 159 752 157 c 0
EndSplineSet
Validated: 1
EndChar

StartChar: D
Encoding: 68 68 3
Width: 721
VWidth: 0
Flags: HW
LayerCount: 2
Back
Fore
SplineSet
315 131 m 0
 335 135 411 141 430 145 c 0
 510 165 546 174 579 217 c 0
 594 240 598 268 598 294 c 0
 598 322 591 351 574 377 c 0
 532 433 466 488 385 539 c 0
 289 600 225 648 102 648 c 0
 101 648 101 648 100 648 c 0
 87 648 78 633 78 620 c 0
 78 617 79 612 80 609 c 8
 130 490 138 508 190 389 c 0
 232 296 235 238 281 146 c 0
 286 137 296 130 304 130 c 0
 312 130 306 128 315 131 c 0
51 124 m 0
 71 126 86 127 96 127 c 0
 114 127 123 124 146 120 c 0
 171 114 142 113 157 113 c 0
 168 113 174 115 174 120 c 0
 174 121 174 121 174 122 c 0
 82 369 63 429 -17 586 c 0
 -23 599 -29 617 -29 630 c 0
 -29 663 -14 693 14 713 c 0
 47 738 78 749 111 749 c 0
 128 749 148 745 166 739 c 0
 309 693 410 624 582 495 c 0
 649 446 694 369 694 296 c 0
 694 281 692 263 690 247 c 0
 672 132 636 122 530 67 c 0
 459 31 346 18 279 18 c 0
 265 18 246 19 230 19 c 0
 150 21 149 20 80 30 c 0
 49 34 29 70 23 87 c 0
 22 89 20 90 20 92 c 0
 20 106 38 122 51 124 c 0
EndSplineSet
Validated: 1
EndChar

StartChar: E
Encoding: 69 69 4
Width: 761
VWidth: 0
Flags: HW
LayerCount: 2
Back
Fore
SplineSet
680 91 m 8
 557 52 482 38 353 34 c 16
 340 34 324 33 313 33 c 0
 238 33 186 41 112 75 c 8
 63 98 31 129 27 182 c 16
 26 188 26 196 26 203 c 0
 26 265 57 304 84 367 c 8
 113 438 142 471 173 542 c 24
 176 550 180 564 171 566 c 0
 157 569 143 569 132 569 c 0
 122 569 112 569 103 569 c 0
 90 569 75 570 58 575 c 0
 44 580 39 593 39 607 c 0
 39 609 39 612 39 615 c 0
 41 632 56 648 74 650 c 0
 149 658 200 663 255 663 c 0
 294 663 336 660 389 657 c 0
 522 648 598 635 728 605 c 24
 737 603 726 588 720 583 c 24
 710 574 701 569 689 569 c 16
 681 569 672 569 664 569 c 0
 540 569 457 579 344 579 c 0
 316 579 286 579 253 577 c 8
 241 576 242 560 238 548 c 24
 220 494 198 461 193 403 c 16
 193 402 l 0
 193 388 210 382 225 380 c 8
 403 362 507 372 685 353 c 16
 697 352 707 343 707 331 c 0
 707 330 707 329 707 329 c 0
 706 326 706 321 706 319 c 0
 706 312 708 309 708 305 c 0
 708 302 705 298 697 293 c 0
 688 287 659 287 640 287 c 0
 633 287 626 287 623 287 c 0
 451 292 385 299 214 299 c 0
 205 299 192 302 184 302 c 0
 177 302 171 301 168 296 c 0
 143 269 113 249 113 216 c 0
 113 213 113 210 114 207 c 0
 121 163 143 129 187 125 c 0
 229 121 265 119 298 119 c 0
 414 119 487 143 620 157 c 0
 631 159 642 160 652 160 c 0
 668 160 683 154 696 141 c 0
 700 137 702 131 702 125 c 0
 702 112 692 96 680 91 c 8
EndSplineSet
Validated: 1
EndChar

StartChar: F
Encoding: 70 70 5
Width: 630
VWidth: 0
Flags: HW
LayerCount: 2
Back
Fore
SplineSet
223 12 m 8
 194 16 171 23 161 50 c 24
 132 125 146 174 131 252 c 0
 128 267 131 272 117 279 c 16
 111 282 101 283 94 283 c 0
 89 283 84 283 80 283 c 0
 70 283 59 285 53 292 c 0
 44 302 40 315 40 327 c 0
 40 336 42 348 47 358 c 0
 50 365 60 367 69 367 c 0
 71 367 74 367 76 367 c 0
 84 367 91 368 91 375 c 0
 91 376 91 376 91 376 c 8
 84 531 29 611 29 766 c 16
 29 793 54 811 81 811 c 0
 84 811 88 811 91 810 c 8
 295 765 408 724 597 640 c 16
 611 634 620 617 620 602 c 0
 620 594 616 585 611 579 c 0
 600 566 585 561 570 561 c 0
 559 561 546 563 534 566 c 8
 399 597 330 645 194 673 c 16
 193 673 191 673 189 673 c 0
 175 673 166 657 165 642 c 0
 165 629 164 615 164 604 c 0
 164 535 171 488 185 413 c 0
 188 399 197 384 211 384 c 0
 212 384 212 384 213 384 c 0
 295 387 331 406 408 406 c 0
 413 406 419 406 425 406 c 0
 432 406 438 406 444 406 c 0
 451 406 459 406 465 406 c 0
 503 406 531 403 605 364 c 0
 615 359 622 342 622 329 c 0
 622 315 615 301 605 301 c 0
 604 301 604 301 603 301 c 0
 506 313 539 325 431 330 c 0
 421 331 409 331 399 331 c 0
 330 331 269 317 223 298 c 0
 204 290 198 274 198 258 c 0
 198 221 230 170 240 126 c 0
 247 98 290 77 290 41 c 0
 290 39 289 36 289 34 c 0
 286 17 267 10 249 10 c 0
 241 10 231 11 223 12 c 8
EndSplineSet
Validated: 1
EndChar

StartChar: G
Encoding: 71 71 6
Width: 790
VWidth: 0
Flags: HW
LayerCount: 2
Back
Fore
SplineSet
627 306 m 0
 625 306 614 306 595 309 c 1
 601 296 613 296 622 272 c 0
 630 249 641 230 641 212 c 0
 641 203 637 192 632 183 c 0
 590 113 539 78 462 52 c 0
 418 39 385 31 352 31 c 0
 318 31 286 39 243 57 c 0
 153 97 100 140 55 228 c 16
 37 264 31 297 31 330 c 0
 31 365 38 398 47 439 c 8
 67 530 90 585 155 653 c 0
 208 708 232 732 310 737 c 0
 313 737 316 737 319 737 c 0
 360 737 406 720 417 682 c 0
 418 679 418 675 418 671 c 0
 418 647 393 631 366 628 c 0
 365 628 365 628 364 628 c 0
 348 628 324 647 301 647 c 0
 295 647 288 646 283 642 c 0
 215 593 194 576 162 506 c 16
 138 456 118 404 118 352 c 0
 118 335 121 316 126 298 c 0
 150 221 194 183 267 148 c 16
 302 132 331 126 362 126 c 0
 391 126 420 131 453 140 c 8
 504 154 557 176 557 230 c 0
 557 281 498 283 454 311 c 0
 417 334 393 338 373 338 c 0
 363 338 352 337 343 337 c 0
 329 337 313 339 295 351 c 0
 284 359 276 375 276 388 c 0
 276 403 285 420 300 424 c 0
 313 428 326 429 337 429 c 0
 387 429 421 395 483 388 c 0
 521 384 539 383 549 383 c 0
 559 383 566 384 580 384 c 0
 590 384 605 384 633 382 c 0
 637 382 643 382 647 382 c 0
 680 382 703 389 733 389 c 0
 741 389 750 388 759 387 c 8
 770 385 781 368 774 359 c 0
 754 330 736 312 701 306 c 0
 690 304 679 304 669 304 c 0
 653 304 636 305 627 306 c 0
EndSplineSet
Validated: 1
EndChar

StartChar: H
Encoding: 72 72 7
Width: 559
VWidth: 0
Flags: HW
LayerCount: 2
Back
Fore
SplineSet
184 51 m 8
 175 32 162 17 139 17 c 24
 114 18 96 30 90 53 c 24
 63 138 68 191 59 279 c 0
 44 418 25 491 25 622 c 0
 25 631 25 641 25 650 c 0
 26 676 43 709 68 709 c 0
 69 709 70 709 71 709 c 0
 100 706 113 678 115 649 c 0
 122 537 113 473 127 359 c 0
 128 350 135 343 143 343 c 16
 151 343 161 343 168 343 c 0
 213 343 246 346 295 356 c 8
 304 358 307 369 305 378 c 0
 289 470 271 522 260 615 c 0
 257 641 254 662 254 680 c 0
 254 698 257 717 266 744 c 0
 271 758 280 776 293 776 c 0
 296 776 298 775 301 774 c 0
 330 764 342 743 349 713 c 24
 380 589 349 538 394 390 c 0
 399 373 412 371 429 367 c 0
 438 365 446 364 453 364 c 0
 469 364 483 369 501 369 c 0
 506 369 514 369 521 367 c 0
 531 365 551 343 551 332 c 0
 551 331 551 331 551 330 c 0
 549 317 539 305 526 302 c 16
 522 301 518 301 514 301 c 0
 499 301 485 307 470 307 c 0
 466 307 461 306 456 305 c 0
 445 302 432 293 432 283 c 0
 432 281 432 280 433 278 c 8
 449 216 491 190 505 128 c 16
 506 126 506 123 506 121 c 0
 506 105 493 92 479 83 c 0
 473 80 467 78 461 78 c 0
 453 78 444 81 438 87 c 0
 399 132 406 152 381 206 c 0
 374 222 372 248 366 265 c 0
 362 276 352 285 340 285 c 0
 307 284 294 272 261 269 c 0
 254 268 248 268 242 268 c 0
 231 268 219 269 209 269 c 0
 200 269 189 268 178 266 c 0
 164 263 150 254 150 239 c 0
 150 238 150 238 150 237 c 8
 152 189 177 166 185 119 c 16
 188 105 190 92 190 81 c 0
 190 72 189 61 184 51 c 8
EndSplineSet
Validated: 1
EndChar

StartChar: I
Encoding: 73 73 8
Width: 267
VWidth: 0
Flags: HW
LayerCount: 2
Back
Fore
SplineSet
208 102 m 16
 211 95 212 87 212 80 c 0
 212 66 206 51 193 42 c 0
 187 38 180 36 173 36 c 0
 161 36 147 42 138 52 c 8
 102 90 81 117 72 168 c 16
 68 191 67 209 67 227 c 0
 67 277 77 321 77 376 c 0
 77 385 77 394 76 404 c 0
 70 496 54 533 48 625 c 0
 46 662 43 681 43 697 c 0
 43 716 47 735 58 776 c 0
 63 793 75 805 89 805 c 0
 92 805 96 805 100 803 c 0
 123 795 125 754 128 730 c 0
 143 605 141 679 148 554 c 0
 150 520 162 438 162 404 c 0
 162 346 148 312 146 254 c 16
 145 234 142 217 142 201 c 0
 142 188 145 173 151 158 c 8
 162 129 198 131 208 102 c 16
EndSplineSet
Validated: 1
EndChar

StartChar: underscore
Encoding: 95 95 9
Width: 702
VWidth: 0
Flags: HW
LayerCount: 2
Back
Fore
SplineSet
65 78 m 0
 88 82 107 83 125 83 c 0
 201 83 258 57 346 56 c 0
 354 56 362 56 370 56 c 0
 425 56 470 57 516 57 c 0
 556 57 597 56 646 52 c 0
 669 50 682 27 682 7 c 0
 682 -7 673 -22 658 -26 c 0
 631 -32 609 -35 585 -35 c 0
 507 -35 444 -4 352 0 c 0
 344 0 336 0 329 0 c 0
 256 0 199 -12 138 -12 c 0
 107 -12 76 -9 40 0 c 0
 31 3 27 13 27 23 c 0
 27 43 45 74 65 78 c 0
EndSplineSet
Validated: 1
EndChar

StartChar: J
Encoding: 74 74 10
Width: 590
VWidth: 0
Flags: HW
LayerCount: 2
Back
Fore
SplineSet
-18 610 m 8
 -55 620 -76 644 -88 680 c 16
 -89 682 -89 682 -89 684 c 0
 -89 696 -65 703 -50 703 c 8
 -25 702 -21 677 5 675 c 16
 15 674 27 674 37 674 c 0
 77 674 109 681 156 686 c 0
 173 688 207 706 222 706 c 0
 226 706 232 704 236 701 c 0
 256 691 268 671 276 648 c 0
 309 560 313 530 348 442 c 0
 371 387 389 340 422 290 c 0
 475 209 501 177 550 91 c 0
 557 79 562 62 562 48 c 0
 562 34 550 8 537 0 c 0
 417 -75 339 -98 203 -132 c 16
 176 -138 153 -141 133 -141 c 0
 104 -141 78 -136 44 -123 c 0
 29 -116 17 -99 17 -83 c 0
 17 -76 21 -67 26 -60 c 0
 65 -12 105 8 161 34 c 24
 168 37 179 26 178 17 c 16
 176 0 148 -16 148 -27 c 0
 148 -29 151 -32 154 -34 c 0
 163 -39 172 -42 180 -42 c 0
 198 -42 219 -42 243 -36 c 0
 328 -12 347 4 426 44 c 0
 435 49 441 60 441 70 c 0
 441 75 440 79 437 83 c 8
 395 158 376 175 335 250 c 0
 262 381 242 466 177 601 c 24
 171 610 165 619 154 620 c 16
 149 620 144 620 140 620 c 0
 94 620 60 606 20 606 c 0
 9 606 -4 607 -18 610 c 8
EndSplineSet
Validated: 1
EndChar

StartChar: K
Encoding: 75 75 11
Width: 815
VWidth: 0
Flags: HW
LayerCount: 2
Back
Fore
SplineSet
40 740 m 0
 40 742 40 743 40 745 c 0
 40 765 59 782 82 784 c 0
 83 784 84 784 85 784 c 0
 104 784 121 768 124 749 c 8
 158 542 144 422 174 214 c 0
 176 200 198 198 205 210 c 0
 239 269 256 295 279 334 c 0
 284 343 297 358 297 369 c 0
 297 370 296 373 296 374 c 0
 288 399 263 394 263 420 c 0
 263 439 275 455 293 460 c 0
 295 460 296 461 298 461 c 0
 309 461 321 449 332 449 c 0
 344 449 352 456 358 466 c 0
 456 621 464 664 511 768 c 0
 517 781 538 794 553 794 c 0
 559 794 564 792 568 788 c 0
 580 777 584 763 584 748 c 0
 584 739 583 726 581 715 c 0
 572 656 555 640 527 587 c 24
 494 524 461 481 428 418 c 0
 423 408 423 395 432 388 c 0
 563 280 633 262 757 145 c 16
 764 139 768 126 768 114 c 0
 768 101 763 86 755 82 c 0
 750 79 742 78 735 78 c 0
 718 78 695 86 684 96 c 0
 572 194 519 228 394 308 c 0
 391 310 388 310 386 310 c 0
 377 310 366 304 360 296 c 8
 291 210 278 143 202 62 c 16
 195 55 184 52 175 52 c 0
 164 52 151 57 144 65 c 8
 108 103 94 133 86 184 c 24
 52 399 71 522 40 740 c 0
EndSplineSet
Validated: 1
EndChar

StartChar: L
Encoding: 76 76 12
Width: 607
VWidth: 0
Flags: HW
LayerCount: 2
Back
Fore
SplineSet
582 106 m 0
 579 73 575 41 542 36 c 16
 462 25 398 17 335 17 c 0
 268 17 203 25 119 38 c 0
 75 45 33 70 33 114 c 0
 33 115 33 115 33 116 c 0
 35 246 35 289 51 400 c 0
 64 488 91 535 108 623 c 24
 119 678 106 715 125 768 c 16
 130 783 147 797 161 797 c 0
 165 797 169 796 173 793 c 0
 204 770 214 748 214 713 c 0
 214 708 213 702 213 696 c 0
 206 583 166 540 146 429 c 0
 127 327 119 255 119 151 c 0
 119 132 152 126 170 125 c 16
 240 122 290 117 340 117 c 0
 387 117 435 122 496 136 c 0
 526 143 529 164 544 164 c 0
 546 164 550 163 554 162 c 0
 564 158 582 139 582 114 c 0
 582 112 582 108 582 106 c 0
EndSplineSet
Validated: 1
EndChar

StartChar: M
Encoding: 77 77 13
Width: 696
VWidth: 0
Flags: HW
LayerCount: 2
Back
Fore
SplineSet
114 144 m 0
 112 124 94 104 75 104 c 0
 73 104 72 104 70 104 c 8
 44 107 38 130 36 157 c 16
 33 200 32 236 32 272 c 0
 32 369 41 450 48 569 c 0
 49 581 49 595 49 606 c 0
 49 623 48 640 48 655 c 0
 48 689 52 720 65 759 c 0
 69 771 82 778 94 778 c 0
 100 778 108 777 114 774 c 0
 138 764 131 749 136 724 c 0
 137 719 137 713 137 708 c 0
 137 700 136 690 136 682 c 0
 136 670 138 657 146 650 c 0
 204 595 240 582 318 558 c 0
 321 557 326 557 330 557 c 0
 346 557 363 570 367 587 c 0
 371 601 373 616 373 628 c 0
 373 659 364 685 364 718 c 0
 364 728 365 740 367 751 c 8
 370 769 384 783 402 786 c 16
 403 786 405 786 406 786 c 0
 419 786 428 774 434 761 c 8
 529 527 584 396 660 154 c 16
 666 135 670 115 670 99 c 0
 670 82 666 63 658 44 c 0
 653 31 640 26 626 26 c 0
 621 26 615 27 610 28 c 8
 583 34 562 41 556 68 c 0
 509 269 491 337 444 508 c 24
 441 519 438 535 428 532 c 16
 385 520 372 469 330 469 c 0
 327 469 324 470 321 470 c 8
 240 481 212 537 138 574 c 28
 130 578 115 581 114 572 c 16
 112 544 112 520 112 495 c 0
 112 409 119 340 119 258 c 0
 119 223 118 185 114 144 c 0
EndSplineSet
Validated: 1
EndChar

StartChar: N
Encoding: 78 78 14
Width: 604
VWidth: 0
Flags: HW
LayerCount: 2
Back
Fore
SplineSet
184 106 m 0
 183 83 162 65 142 65 c 0
 140 65 138 67 136 67 c 8
 101 73 80 91 80 126 c 0
 77 363 39 465 33 663 c 0
 33 664 33 665 33 665 c 0
 33 702 55 701 91 709 c 0
 95 710 100 710 104 710 c 0
 120 710 135 702 135 691 c 0
 135 690 135 689 135 688 c 0
 133 679 114 677 114 659 c 0
 114 656 115 652 116 648 c 0
 130 593 124 552 162 508 c 0
 259 394 321 345 443 258 c 16
 445 257 448 256 450 256 c 0
 460 256 476 270 476 280 c 0
 476 281 l 0
 470 341 421 411 398 467 c 0
 379 517 369 559 344 606 c 0
 302 687 301 661 273 748 c 0
 269 760 264 776 264 788 c 0
 264 797 267 808 276 813 c 0
 280 815 287 816 293 816 c 0
 311 816 336 805 343 791 c 0
 443 591 502 498 558 276 c 0
 561 264 562 253 562 243 c 0
 562 216 553 194 530 170 c 0
 520 160 501 156 484 156 c 0
 475 156 464 157 457 159 c 8
 386 179 361 192 304 237 c 0
 248 282 237 331 186 382 c 24
 179 389 160 390 160 380 c 16
 160 378 160 377 160 375 c 0
 160 279 184 220 184 127 c 0
 184 121 184 113 184 106 c 0
EndSplineSet
Validated: 1
EndChar

StartChar: O
Encoding: 79 79 15
Width: 636
VWidth: 0
Flags: HW
LayerCount: 2
Back
Fore
SplineSet
118 246 m 4
 158 188 182 170 252 151 c 4
 277 144 299 140 319 140 c 4
 355 140 388 151 424 170 c 4
 478 201 512 230 518 292 c 4
 519 298 519 304 519 309 c 4
 519 354 501 379 466 418 c 4
 431 457 400 471 350 484 c 4
 342 486 333 487 326 487 c 4
 311 487 293 484 276 484 c 4
 259 484 239 488 221 488 c 4
 213 488 203 487 195 484 c 4
 149 467 146 445 120 402 c 4
 112 389 111 377 111 365 c 4
 111 355 112 343 112 330 c 4
 112 312 104 296 104 281 c 4
 104 271 109 260 118 246 c 4
294 46 m 12
 205 49 168 75 94 126 c 28
 52 156 37 191 32 242 c 4
 28 283 17 325 17 366 c 4
 17 393 23 417 36 442 c 4
 74 510 122 555 202 579 c 4
 226 585 247 588 273 588 c 4
 325 588 380 576 422 550 c 4
 520 492 596 452 616 298 c 4
 617 292 617 286 617 280 c 4
 617 209 561 161 504 114 c 4
 443 63 387 46 308 46 c 4
 304 46 299 46 294 46 c 12
EndSplineSet
Validated: 1
EndChar

StartChar: P
Encoding: 80 80 16
Width: 535
VWidth: 0
Flags: HW
LayerCount: 2
Back
Fore
SplineSet
204 471 m 0
 228 451 247 431 283 431 c 0
 290 431 299 431 307 433 c 0
 349 442 400 475 400 513 c 0
 400 519 399 525 396 531 c 0
 355 616 316 643 227 701 c 0
 219 706 209 710 199 710 c 0
 175 710 150 698 138 680 c 0
 128 665 124 647 124 632 c 0
 124 606 134 582 143 552 c 0
 151 526 179 494 204 471 c 0
380 5 m 16
 382 0 383 -5 383 -9 c 0
 383 -23 373 -37 360 -45 c 0
 353 -49 343 -51 333 -51 c 0
 314 -51 292 -45 286 -33 c 8
 161 201 84 322 28 582 c 0
 25 597 23 613 23 627 c 0
 23 695 61 745 117 797 c 0
 129 808 146 813 162 813 c 0
 200 813 241 791 256 781 c 0
 385 691 384 682 475 554 c 0
 486 539 492 519 492 501 c 0
 492 474 480 447 456 430 c 8
 382 373 336 375 246 349 c 16
 243 348 237 348 234 348 c 0
 224 348 214 350 206 350 c 0
 201 350 196 349 196 345 c 0
 196 344 197 343 198 341 c 8
 252 203 323 142 380 5 c 16
EndSplineSet
Validated: 1
EndChar

StartChar: R
Encoding: 82 82 17
Width: 786
VWidth: 0
Flags: HW
LayerCount: 2
Back
Fore
SplineSet
176 390 m 16
 181 377 196 370 210 370 c 0
 214 370 218 370 222 371 c 8
 277 384 313 395 354 434 c 0
 370 450 382 474 382 500 c 0
 382 512 379 526 374 537 c 8
 339 606 305 617 242 658 c 0
 228 667 210 674 195 674 c 0
 184 674 172 669 162 660 c 0
 147 645 141 627 141 609 c 0
 141 596 143 581 144 566 c 8
 148 496 149 455 176 390 c 16
266 142 m 16
 267 138 267 135 267 131 c 0
 267 116 260 100 246 94 c 0
 239 91 230 89 223 89 c 0
 210 89 195 95 186 106 c 8
 132 174 103 216 78 300 c 16
 46 408 19 483 19 580 c 0
 19 605 23 629 26 658 c 0
 33 716 75 744 132 757 c 0
 151 761 170 763 186 763 c 0
 232 763 270 748 317 720 c 0
 394 675 407 652 454 568 c 0
 466 544 473 517 473 488 c 0
 473 468 470 446 462 429 c 0
 436 375 385 371 341 340 c 0
 333 335 319 322 319 315 c 0
 319 313 321 311 324 310 c 0
 422 262 480 245 586 219 c 0
 616 212 638 212 663 212 c 0
 664 212 666 212 667 212 c 0
 693 212 717 212 749 204 c 0
 764 200 780 185 780 170 c 0
 780 168 779 165 778 162 c 8
 768 134 747 122 717 120 c 0
 699 119 680 119 664 119 c 0
 593 119 535 126 462 150 c 8
 372 178 347 220 262 260 c 0
 251 265 238 273 229 273 c 0
 225 273 221 272 218 268 c 0
 213 263 212 258 212 252 c 0
 212 242 217 230 222 218 c 8
 234 186 260 176 266 142 c 16
EndSplineSet
Validated: 1
EndChar

StartChar: Q
Encoding: 81 81 18
Width: 636
VWidth: 0
Flags: HW
LayerCount: 2
Back
Fore
SplineSet
26 234 m 0
 22 275 17 325 17 366 c 0
 17 393 23 417 36 442 c 0
 74 510 122 555 202 579 c 0
 226 585 247 588 273 588 c 0
 325 588 380 576 422 550 c 0
 520 492 574 485 600 367 c 0
 607 331 610 307 610 290 c 0
 610 266 606 256 603 250 c 0
 570 179 561 213 554 151 c 0
 554 150 554 148 554 146 c 0
 554 121 584 108 596 84 c 0
 602 72 610 58 610 47 c 0
 610 42 608 37 604 33 c 0
 594 23 581 17 569 17 c 0
 560 17 550 21 540 25 c 0
 505 38 497 81 460 84 c 0
 456 84 450 84 445 84 c 0
 394 84 318 65 262 65 c 0
 246 65 230 68 218 72 c 8
 92 116 31 183 26 234 c 0
118 246 m 0
 158 188 182 170 252 151 c 0
 277 144 299 140 319 140 c 0
 355 140 388 151 424 170 c 0
 478 201 512 230 518 292 c 0
 519 298 519 304 519 309 c 0
 519 354 501 379 466 418 c 0
 431 457 400 471 350 484 c 0
 342 486 333 487 326 487 c 0
 311 487 293 484 276 484 c 0
 259 484 239 488 221 488 c 0
 213 488 203 487 195 484 c 0
 149 467 146 445 120 402 c 0
 112 389 111 377 111 365 c 0
 111 355 112 343 112 330 c 0
 112 312 104 296 104 281 c 0
 104 271 109 260 118 246 c 0
EndSplineSet
Validated: 1
EndChar

StartChar: S
Encoding: 83 83 19
Width: 722
VWidth: 0
Flags: HW
LayerCount: 2
Back
Fore
SplineSet
436 563 m 4
 418 538 409 521 386 517 c 4
 380 516 373 514 367 514 c 4
 358 514 346 517 333 530 c 4
 326 537 323 546 323 553 c 4
 323 563 330 573 332 575 c 4
 339 582 342 591 342 596 c 4
 342 619 293 624 283 624 c 4
 268 624 247 619 232 615 c 4
 178 602 157 590 118 548 c 4
 111 541 108 531 108 522 c 4
 108 511 114 497 122 489 c 4
 177 434 220 400 290 365 c 4
 449 287 542 307 687 209 c 4
 702 199 710 180 710 162 c 4
 710 143 700 120 685 108 c 12
 605 48 540 37 441 26 c 20
 404 22 373 18 343 18 c 4
 278 18 221 29 143 43 c 12
 120 47 116 67 113 87 c 20
 113 90 112 93 112 96 c 4
 112 110 117 126 130 128 c 4
 170 135 206 137 240 137 c 4
 289 137 336 132 386 132 c 4
 436 132 490 139 558 156 c 4
 568 159 574 175 564 179 c 4
 450 229 366 232 254 288 c 4
 155 338 99 372 28 458 c 20
 10 481 -3 504 -3 530 c 4
 -3 545 1 563 11 577 c 4
 69 662 122 712 222 731 c 20
 236 734 252 735 265 735 c 4
 324 735 371 721 419 674 c 4
 427 667 440 644 442 633 c 4
 444 623 452 612 452 599 c 4
 452 590 447 577 436 563 c 4
EndSplineSet
Validated: 1
EndChar

StartChar: T
Encoding: 84 84 20
Width: 578
VWidth: 0
Flags: HW
LayerCount: 2
Back
Fore
SplineSet
353 34 m 16
 353 33 353 32 353 31 c 0
 353 13 332 -2 313 -2 c 0
 312 -2 312 -2 311 -2 c 8
 282 1 258 13 252 43 c 0
 205 264 215 380 180 603 c 0
 178 614 176 636 165 638 c 0
 139 642 117 644 97 644 c 0
 82 644 64 643 45 641 c 0
 22 639 6 626 -11 626 c 0
 -15 626 -22 627 -27 629 c 0
 -44 635 -61 653 -61 669 c 0
 -61 673 -59 678 -57 682 c 8
 -34 717 -5 728 37 731 c 16
 62 733 83 734 103 734 c 0
 175 734 229 723 313 709 c 8
 412 692 470 676 566 639 c 24
 576 635 581 614 571 609 c 16
 558 602 544 600 532 600 c 0
 522 600 511 601 499 602 c 0
 423 607 380 628 307 628 c 0
 302 628 298 628 293 628 c 0
 276 627 260 612 260 594 c 0
 260 593 260 592 260 591 c 8
 283 372 335 253 353 34 c 16
EndSplineSet
Validated: 1
EndChar

StartChar: U
Encoding: 85 85 21
Width: 565
VWidth: 0
Flags: HW
LayerCount: 2
Back
Fore
SplineSet
77 664 m 0
 86 680 104 687 121 687 c 0
 136 687 154 681 168 674 c 0
 183 666 188 660 188 652 c 0
 188 646 185 636 182 623 c 0
 181 617 177 615 172 615 c 0
 169 615 166 615 162 615 c 0
 151 615 138 612 136 577 c 0
 134 535 133 500 133 465 c 0
 133 393 139 330 162 245 c 0
 176 189 202 151 258 128 c 16
 277 121 297 117 315 117 c 0
 346 117 374 128 398 156 c 0
 435 198 443 240 443 291 c 0
 443 306 442 324 441 341 c 8
 436 411 406 444 379 507 c 24
 363 548 330 564 330 607 c 16
 330 639 344 676 374 676 c 0
 375 676 377 676 379 676 c 8
 427 670 447 632 466 589 c 24
 513 491 545 432 547 323 c 16
 547 314 547 303 547 295 c 0
 547 208 535 144 477 71 c 0
 439 24 392 6 338 6 c 0
 324 6 307 7 292 9 c 8
 211 20 157 51 115 122 c 24
 47 233 38 310 30 439 c 16
 29 456 28 474 28 490 c 0
 28 551 40 603 77 664 c 0
EndSplineSet
Validated: 1
EndChar

StartChar: W
Encoding: 87 87 22
Width: 737
VWidth: 0
Flags: HW
LayerCount: 2
Back
Fore
SplineSet
216 76 m 0
 199 51 182 31 155 31 c 0
 152 31 147 32 144 32 c 8
 109 37 94 62 84 96 c 24
 43 229 31 308 16 446 c 16
 15 455 15 465 15 473 c 0
 15 500 22 520 34 548 c 0
 44 568 58 593 78 593 c 0
 80 593 83 593 86 592 c 8
 124 582 139 552 154 516 c 16
 155 514 155 513 155 511 c 0
 155 501 141 490 130 490 c 0
 117 490 100 519 97 519 c 0
 96 519 96 519 96 517 c 0
 96 516 l 8
 104 389 120 318 148 193 c 0
 151 180 151 158 161 158 c 0
 162 158 163 158 164 158 c 0
 164 158 160 165 160 173 c 0
 160 180 163 189 176 195 c 0
 203 206 223 214 248 214 c 0
 258 214 269 213 281 210 c 8
 377 184 420 129 516 106 c 16
 524 104 534 103 543 103 c 0
 569 103 592 111 598 136 c 0
 601 148 602 161 602 171 c 0
 602 213 580 247 564 294 c 0
 533 378 513 409 464 483 c 24
 432 530 390 551 358 598 c 0
 350 610 344 625 344 638 c 0
 344 647 347 657 354 665 c 0
 363 676 379 683 392 683 c 0
 402 683 413 679 422 673 c 0
 458 647 458 616 487 581 c 0
 521 540 548 513 573 465 c 0
 627 353 665 315 690 198 c 0
 692 188 693 176 693 167 c 0
 693 132 679 107 653 75 c 0
 624 40 600 23 559 23 c 0
 555 23 549 24 545 24 c 0
 465 30 427 62 352 92 c 24
 310 107 291 126 248 138 c 24
 238 141 225 139 220 130 c 16
 218 126 217 122 217 118 c 0
 217 109 220 98 220 90 c 0
 220 85 219 81 216 76 c 0
EndSplineSet
Validated: 1
EndChar

StartChar: V
Encoding: 86 86 23
Width: 651
VWidth: 0
Flags: HW
LayerCount: 2
Back
Fore
SplineSet
394 29 m 24
 380 3 360 -8 330 -10 c 16
 329 -10 328 -10 327 -10 c 0
 310 -10 301 8 291 24 c 8
 151 258 54 382 -54 632 c 16
 -56 636 -57 641 -57 645 c 0
 -57 670 -29 692 -1 692 c 8
 42 692 63 666 93 632 c 24
 102 624 62 626 68 614 c 24
 157 426 221 325 323 144 c 16
 329 135 338 115 344 115 c 0
 345 115 346 116 347 118 c 8
 439 288 445 404 553 567 c 16
 565 585 584 595 607 595 c 0
 621 595 639 590 653 582 c 0
 663 577 667 567 667 557 c 0
 667 543 659 525 653 511 c 8
 562 318 508 210 394 29 c 24
EndSplineSet
Validated: 1
EndChar

StartChar: Y
Encoding: 89 89 24
Width: 667
VWidth: 0
Flags: HW
LayerCount: 2
Back
Fore
SplineSet
569 41 m 4
 564 5 542 -25 507 -26 c 20
 506 -26 505 -26 504 -26 c 4
 455 -26 422 -2 390 36 c 12
 218 240 129 362 -10 589 c 20
 -20 605 -27 624 -27 640 c 4
 -27 655 -21 672 -10 686 c 4
 4 704 25 717 48 717 c 4
 58 717 70 714 79 706 c 4
 95 691 97 672 97 654 c 4
 97 643 96 632 96 621 c 4
 96 607 98 591 105 577 c 12
 154 478 191 424 261 337 c 28
 268 329 280 340 288 349 c 28
 387 441 414 533 536 592 c 20
 546 597 558 600 569 600 c 4
 607 600 645 570 662 530 c 4
 663 528 663 527 663 525 c 4
 663 495 552 481 525 458 c 12
 433 383 431 370 353 281 c 4
 345 272 342 261 342 251 c 4
 342 239 347 225 355 215 c 4
 408 153 413 133 489 91 c 4
 509 80 569 68 569 43 c 4
 569 42 569 42 569 41 c 4
EndSplineSet
Validated: 1
EndChar

StartChar: Z
Encoding: 90 90 25
Width: 724
VWidth: 0
Flags: HW
LayerCount: 2
Back
Fore
SplineSet
657 166 m 16
 664 167 672 168 679 168 c 0
 686 168 693 166 698 159 c 0
 703 150 709 137 709 127 c 0
 709 118 704 108 696 103 c 8
 629 63 584 48 506 41 c 16
 461 36 423 34 387 34 c 0
 332 34 282 40 212 54 c 0
 134 69 98 73 31 118 c 16
 25 123 18 141 18 156 c 0
 18 167 22 177 28 181 c 0
 121 254 188 273 286 342 c 0
 358 391 391 418 445 486 c 0
 465 512 522 557 522 591 c 0
 522 593 521 595 521 597 c 0
 515 622 453 612 428 617 c 0
 420 619 411 620 403 620 c 0
 356 620 316 592 266 583 c 0
 236 577 226 548 200 548 c 0
 198 548 193 548 190 549 c 4
 151 558 116 580 116 617 c 4
 116 619 116 621 116 623 c 8
 120 665 161 681 203 685 c 0
 272 693 372 712 460 712 c 0
 509 712 552 705 586 689 c 0
 618 673 629 649 629 620 c 0
 629 588 615 553 600 519 c 0
 559 430 499 397 432 338 c 0
 351 264 282 253 199 183 c 16
 198 181 196 179 196 176 c 0
 196 169 207 159 216 157 c 0
 295 141 345 133 420 133 c 0
 428 133 438 133 447 133 c 8
 530 135 574 158 657 166 c 16
EndSplineSet
Validated: 1
EndChar

StartChar: exclam
Encoding: 33 33 27
Width: 544
VWidth: 0
Flags: HW
LayerCount: 2
Back
Fore
SplineSet
184 774 m 0
 191 829 204 843 230 845 c 0
 231 845 233 845 234 845 c 0
 264 845 287 811 298 753 c 0
 313 671 319 615 319 562 c 0
 319 543 319 527 319 513 c 0
 319 463 317 426 296 306 c 0
 291 278 263 264 252 264 c 0
 233 264 210 297 205 343 c 0
 190 481 174 515 174 615 c 0
 174 663 177 715 184 774 c 0
179 91 m 16
 179 93 179 94 179 96 c 0
 179 131 218 155 254 155 c 8
 293 155 330 131 333 91 c 16
 333 89 333 87 333 86 c 0
 333 49 303 16 266 16 c 8
 222 16 183 47 179 91 c 16
EndSplineSet
Validated: 1
EndChar

StartChar: comma
Encoding: 44 44 28
Width: 243
VWidth: 0
Flags: HW
LayerCount: 2
Back
Fore
SplineSet
72 174 m 0
 86 183 109 194 134 194 c 0
 149 194 166 190 180 177 c 0
 210 150 222 121 222 88 c 0
 222 68 216 44 207 20 c 0
 180 -43 154 -69 116 -70 c 0
 115 -70 l 0
 107 -70 104 -67 104 -63 c 0
 104 -49 136 -14 136 14 c 0
 136 18 135 22 134 25 c 0
 114 78 65 55 42 108 c 0
 39 115 38 123 38 129 c 0
 38 147 49 162 72 174 c 0
EndSplineSet
Validated: 1
EndChar

StartChar: period
Encoding: 46 46 29
Width: 191
VWidth: 0
Flags: HW
LayerCount: 2
Back
Fore
SplineSet
11 94 m 4
 11 97 10 100 10 103 c 4
 10 145 55 178 98 178 c 4
 100 178 101 178 102 178 c 12
 150 176 175 132 182 85 c 4
 182 84 182 82 182 81 c 4
 182 48 133 18 100 18 c 4
 99 18 99 18 98 18 c 12
 43 21 19 40 11 94 c 4
EndSplineSet
Validated: 1
EndChar

StartChar: X
Encoding: 88 88 30
Width: 819
VWidth: 0
Flags: HW
LayerCount: 2
Back
Fore
SplineSet
198 68 m 0
 183 55 163 47 146 47 c 0
 133 47 119 50 106 56 c 0
 91 62 81 80 81 96 c 0
 81 102 82 110 86 116 c 0
 156 220 222 260 318 348 c 0
 321 351 323 354 323 358 c 0
 323 371 309 389 300 398 c 0
 207 498 129 532 40 636 c 16
 32 644 29 656 29 666 c 0
 29 678 34 690 42 700 c 0
 51 709 64 715 76 715 c 0
 86 715 96 712 104 705 c 0
 213 615 242 545 350 453 c 16
 363 442 381 433 396 433 c 0
 405 433 416 436 424 442 c 8
 499 498 500 568 583 612 c 0
 593 617 605 621 616 621 c 0
 648 621 680 601 692 570 c 0
 693 567 694 563 694 560 c 0
 694 535 649 529 629 506 c 8
 580 456 539 437 501 378 c 16
 498 373 497 367 497 362 c 0
 497 350 506 337 516 327 c 0
 600 246 655 204 753 168 c 0
 772 161 801 126 801 106 c 0
 801 101 800 97 797 94 c 0
 780 77 749 62 720 62 c 0
 709 62 697 67 688 72 c 0
 574 143 545 221 434 298 c 0
 430 301 424 302 419 302 c 0
 407 302 393 297 386 290 c 0
 299 203 292 148 198 68 c 0
EndSplineSet
Validated: 1
EndChar

StartChar: one
Encoding: 49 49 32
Width: 541
VWidth: 0
Flags: HW
LayerCount: 2
Back
Fore
SplineSet
466 78 m 0
 465 58 433 43 407 43 c 0
 393 43 381 47 378 58 c 0
 368 98 365 134 365 168 c 0
 365 231 376 289 376 364 c 0
 376 371 376 378 376 386 c 0
 373 476 372 521 354 609 c 16
 351 624 338 649 328 649 c 0
 325 649 323 648 321 646 c 0
 233 543 199 462 134 359 c 0
 127 348 106 338 87 338 c 0
 78 338 69 340 62 344 c 0
 56 347 53 361 53 373 c 0
 53 379 54 386 56 390 c 0
 127 531 167 607 276 709 c 0
 293 726 315 733 337 733 c 0
 362 733 387 721 409 702 c 0
 451 662 450 620 452 564 c 0
 457 396 467 310 467 165 c 0
 467 138 467 110 466 78 c 0
EndSplineSet
Validated: 1
EndChar

StartChar: zero
Encoding: 48 48 33
Width: 663
VWidth: 0
Flags: HW
LayerCount: 2
Back
Fore
SplineSet
164 209 m 0
 199 162 285 114 363 114 c 0
 402 114 440 126 467 157 c 0
 518 213 530 274 530 343 c 0
 530 364 529 385 528 409 c 0
 520 514 501 652 396 681 c 0
 382 685 367 686 353 686 c 0
 268 686 193 621 157 539 c 0
 134 483 117 420 117 360 c 0
 117 306 131 253 164 209 c 0
204 44 m 8
 90 101 28 181 16 304 c 16
 14 332 13 359 13 383 c 0
 13 511 45 613 148 707 c 0
 211 765 287 805 360 805 c 0
 402 805 443 792 482 762 c 0
 616 656 623 499 631 344 c 0
 632 333 632 321 632 310 c 0
 632 207 607 104 513 55 c 0
 455 24 401 8 346 8 c 0
 299 8 253 19 204 44 c 8
EndSplineSet
Validated: 1
EndChar

StartChar: two
Encoding: 50 50 34
Width: 765
VWidth: 0
Flags: HW
LayerCount: 2
Back
Fore
SplineSet
735 80 m 0
 736 78 736 77 736 75 c 0
 736 60 706 48 689 47 c 0
 668 46 650 45 634 45 c 0
 557 45 513 56 421 56 c 0
 401 56 379 55 353 54 c 0
 287 51 243 49 197 49 c 0
 161 49 122 50 70 54 c 8
 53 55 29 63 28 80 c 0
 28 83 28 86 28 89 c 0
 28 110 31 125 47 137 c 0
 172 237 234 262 344 353 c 24
 439 433 495 481 573 578 c 16
 577 583 579 589 579 596 c 0
 579 608 573 620 563 626 c 0
 520 653 508 654 458 665 c 0
 407 677 354 667 305 685 c 0
 288 692 264 706 264 719 c 0
 264 722 266 725 268 728 c 0
 286 749 315 756 344 756 c 0
 360 756 375 754 390 751 c 8
 495 733 544 730 630 665 c 0
 652 648 662 624 662 598 c 0
 662 582 658 566 652 550 c 0
 625 484 556 424 480 351 c 24
 395 271 330 244 244 165 c 0
 242 163 242 162 242 160 c 0
 242 151 263 142 276 141 c 0
 295 140 313 140 329 140 c 0
 383 140 425 143 490 143 c 0
 513 143 532 144 549 144 c 0
 585 144 615 141 658 128 c 0
 692 118 723 114 735 80 c 0
EndSplineSet
Validated: 1
EndChar

StartChar: three
Encoding: 51 51 35
Width: 763
VWidth: 0
Flags: HW
LayerCount: 2
Back
Fore
SplineSet
494 364 m 0
 465 354 449 347 449 340 c 0
 449 335 463 330 494 324 c 0
 555 312 593 320 649 293 c 24
 686 277 712 257 723 219 c 0
 724 216 724 213 724 209 c 0
 724 183 697 157 674 143 c 0
 577 78 550 64 435 37 c 0
 385 25 344 20 303 20 c 0
 262 20 222 25 171 33 c 0
 132 39 82 37 71 75 c 0
 70 79 69 83 69 87 c 0
 69 113 93 134 121 139 c 0
 123 139 126 140 128 140 c 0
 160 140 172 100 207 99 c 0
 213 99 219 99 224 99 c 0
 306 99 357 112 441 131 c 8
 504 145 545 151 599 189 c 0
 605 193 608 201 608 209 c 0
 608 218 603 228 595 231 c 8
 526 255 484 251 412 255 c 0
 339 259 299 257 227 267 c 0
 182 273 162 270 126 299 c 0
 117 306 112 315 112 325 c 0
 112 331 115 338 122 343 c 0
 146 358 173 357 199 361 c 0
 272 373 291 367 361 389 c 0
 422 407 469 430 516 474 c 16
 519 477 521 481 521 485 c 0
 521 497 508 512 498 519 c 0
 435 565 401 583 327 612 c 24
 257 640 201 626 135 662 c 0
 121 670 117 683 117 698 c 0
 117 705 118 713 119 720 c 0
 122 734 135 745 149 745 c 0
 150 745 151 745 152 745 c 8
 240 734 290 721 373 687 c 24
 458 652 506 628 578 571 c 16
 608 546 637 524 637 490 c 0
 637 485 636 480 635 475 c 0
 628 443 607 433 569 402 c 24
 553 389 526 375 494 364 c 0
EndSplineSet
Validated: 1
EndChar

StartChar: four
Encoding: 52 52 36
Width: 684
VWidth: 0
Flags: HW
LayerCount: 2
Back
Fore
SplineSet
537 -37 m 0
 505 -33 486 0 481 32 c 16
 477 62 475 88 475 111 c 0
 475 166 484 210 484 271 c 0
 484 285 483 301 482 317 c 0
 481 331 471 346 457 347 c 16
 437 348 417 349 399 349 c 0
 321 349 259 339 186 339 c 0
 157 339 126 341 92 345 c 0
 57 349 40 368 18 395 c 0
 16 397 15 400 15 403 c 0
 15 421 37 450 45 463 c 8
 133 588 162 636 266 748 c 0
 275 757 288 763 300 763 c 0
 309 763 318 760 325 754 c 0
 331 749 333 743 333 736 c 0
 333 725 328 713 323 703 c 8
 268 606 215 564 162 467 c 16
 160 463 159 459 159 454 c 0
 159 443 164 432 174 431 c 0
 219 427 256 425 292 425 c 0
 349 425 402 429 474 435 c 0
 487 436 492 497 492 510 c 0
 494 582 525 616 556 666 c 0
 564 679 576 684 590 684 c 0
 605 684 622 677 636 668 c 0
 641 664 643 659 643 654 c 0
 643 638 629 618 625 601 c 8
 613 557 598 546 587 502 c 0
 568 425 567 380 564 301 c 16
 562 262 561 230 561 198 c 0
 561 154 563 112 568 57 c 0
 570 37 581 24 581 8 c 0
 581 4 580 0 579 -4 c 0
 572 -26 565 -37 545 -37 c 0
 542 -37 540 -37 537 -37 c 0
EndSplineSet
Validated: 1
EndChar

StartChar: five
Encoding: 53 53 37
Width: 874
VWidth: 0
Flags: HW
LayerCount: 2
Back
Fore
SplineSet
94 45 m 8
 76 47 62 63 62 81 c 24
 62 99 76 116 94 117 c 16
 122 119 149 120 174 120 c 0
 265 120 338 109 431 109 c 0
 452 109 475 110 499 111 c 8
 578 116 622 124 695 153 c 16
 704 156 708 165 708 174 c 0
 708 181 705 188 701 193 c 8
 677 222 656 234 620 244 c 24
 551 262 509 251 438 262 c 0
 392 269 363 274 323 298 c 0
 268 330 241 349 210 404 c 0
 173 472 174 484 165 559 c 0
 161 590 126 612 121 623 c 0
 118 630 116 637 116 643 c 0
 116 658 125 671 142 674 c 0
 222 689 314 697 403 697 c 0
 463 697 523 693 577 686 c 0
 622 680 675 669 692 628 c 0
 693 625 694 622 694 619 c 0
 694 601 674 582 655 580 c 0
 654 580 653 580 651 580 c 0
 624 580 597 601 569 605 c 0
 526 611 469 613 412 613 c 0
 357 613 304 611 263 606 c 0
 248 604 233 595 233 579 c 0
 233 578 233 578 233 577 c 8
 236 522 232 515 263 469 c 0
 303 411 331 374 398 349 c 0
 425 339 451 336 476 336 c 0
 507 336 536 340 567 340 c 0
 591 340 617 338 644 328 c 0
 721 301 748 285 791 216 c 0
 798 204 802 190 802 176 c 0
 802 149 789 121 768 103 c 0
 709 52 673 36 594 29 c 0
 534 24 482 22 433 22 c 0
 323 22 229 33 94 45 c 8
EndSplineSet
Validated: 1
EndChar

StartChar: six
Encoding: 54 54 38
Width: 733
VWidth: 0
Flags: HW
LayerCount: 2
Back
Fore
SplineSet
285 131 m 0
 337 103 360 101 418 98 c 16
 423 98 428 98 432 98 c 0
 473 98 511 105 551 117 c 0
 571 123 586 129 597 147 c 16
 602 155 605 165 605 175 c 0
 605 182 603 189 597 194 c 8
 539 239 500 263 427 280 c 16
 385 290 351 292 316 292 c 0
 289 292 262 291 229 291 c 0
 224 291 220 291 215 291 c 0
 210 291 206 291 202 291 c 0
 190 291 179 290 169 282 c 0
 160 275 154 260 154 247 c 0
 154 241 155 235 158 231 c 8
 199 177 225 163 285 131 c 0
425 7 m 0
 330 14 279 19 191 55 c 0
 133 80 111 98 75 150 c 0
 38 203 36 246 33 311 c 0
 33 313 33 314 33 316 c 0
 33 355 56 392 79 425 c 8
 142 515 166 554 253 622 c 0
 345 694 406 727 517 762 c 16
 521 763 525 764 529 764 c 0
 551 764 568 747 575 725 c 0
 576 723 576 720 576 718 c 0
 576 698 550 682 534 670 c 0
 441 601 386 598 291 531 c 0
 236 492 218 460 177 408 c 0
 176 406 175 404 175 402 c 0
 175 392 185 380 194 379 c 0
 205 378 216 378 226 378 c 0
 270 378 306 385 347 385 c 0
 365 385 384 383 406 379 c 0
 493 362 522 344 593 293 c 0
 646 254 697 226 697 159 c 24
 697 91 653 52 593 23 c 0
 565 11 515 6 468 6 c 0
 453 6 438 6 425 7 c 0
EndSplineSet
Validated: 1
EndChar

StartChar: seven
Encoding: 55 55 39
Width: 704
VWidth: 0
Flags: HW
LayerCount: 2
Back
Fore
SplineSet
259 42 m 16
 259 40 259 39 259 37 c 0
 259 18 270 -1 270 -16 c 0
 270 -22 268 -28 263 -33 c 0
 255 -40 247 -42 239 -42 c 0
 222 -42 205 -31 189 -18 c 0
 167 2 152 22 152 52 c 0
 152 55 153 59 153 63 c 8
 164 151 204 193 224 279 c 16
 225 282 225 286 225 290 c 0
 225 300 222 309 213 312 c 0
 202 315 193 316 183 316 c 0
 161 316 142 310 121 310 c 0
 109 310 97 312 83 317 c 0
 61 325 46 345 46 370 c 0
 46 371 46 372 46 373 c 8
 47 398 67 409 87 414 c 16
 103 418 117 419 131 419 c 0
 152 419 173 416 194 416 c 0
 208 416 222 417 238 421 c 8
 262 427 276 439 288 464 c 24
 326 540 345 588 364 672 c 16
 364 674 365 675 365 677 c 0
 365 689 356 702 346 702 c 0
 345 702 345 702 344 702 c 8
 296 695 276 656 228 649 c 16
 222 648 217 648 212 648 c 0
 185 648 165 659 137 672 c 0
 114 683 85 688 85 714 c 0
 85 715 85 716 85 717 c 8
 87 747 118 750 144 758 c 24
 207 777 248 765 309 784 c 16
 344 795 355 839 387 839 c 0
 389 839 391 838 393 838 c 8
 433 832 460 804 472 761 c 16
 476 749 477 737 477 726 c 0
 477 694 464 667 453 631 c 8
 425 545 391 507 366 421 c 16
 365 418 365 416 365 413 c 0
 365 402 371 392 381 387 c 8
 425 364 455 370 502 351 c 24
 570 323 618 323 670 269 c 16
 673 266 674 263 674 261 c 0
 674 247 639 236 617 236 c 0
 616 236 614 236 613 236 c 8
 562 241 539 275 489 286 c 16
 454 294 425 307 396 307 c 0
 381 307 365 303 348 293 c 8
 302 266 301 218 283 165 c 24
 267 119 263 90 259 42 c 16
EndSplineSet
Validated: 1
EndChar

StartChar: eight
Encoding: 56 56 40
Width: 783
VWidth: 0
Flags: HW
LayerCount: 2
Back
Fore
SplineSet
174 531 m 8
 188 448 243 418 302 359 c 0
 310 351 319 348 329 348 c 0
 339 348 348 351 358 355 c 0
 414 382 431 397 474 441 c 16
 487 454 513 479 513 496 c 0
 513 501 511 504 508 507 c 0
 450 557 420 585 350 624 c 16
 323 638 300 658 275 658 c 0
 267 658 259 656 250 651 c 0
 208 625 173 592 173 547 c 0
 173 542 173 536 174 531 c 8
218 150 m 0
 293 111 342 101 424 83 c 16
 476 71 511 62 558 62 c 0
 567 62 576 62 585 63 c 0
 594 64 604 76 604 85 c 0
 604 88 602 91 600 93 c 0
 519 160 465 187 374 236 c 16
 352 247 337 256 315 256 c 0
 311 256 307 256 302 255 c 8
 252 248 212 249 180 209 c 16
 177 205 175 201 175 196 c 0
 175 179 198 160 218 150 c 0
316 17 m 0
 211 52 145 69 52 129 c 16
 33 141 17 164 17 184 c 0
 17 193 20 202 28 209 c 0
 97 267 154 260 232 305 c 24
 243 311 240 316 232 326 c 0
 198 367 161 375 136 421 c 0
 112 464 97 497 97 538 c 0
 97 549 98 561 100 573 c 8
 114 649 139 697 200 745 c 0
 221 762 244 770 266 770 c 0
 286 770 305 764 325 754 c 8
 444 695 507 646 594 547 c 16
 611 527 621 504 621 481 c 0
 621 464 616 447 606 431 c 8
 565 361 501 359 449 299 c 16
 447 296 446 294 446 290 c 0
 446 281 456 269 464 263 c 8
 538 212 589 198 663 147 c 24
 701 120 731 106 744 63 c 0
 745 60 745 56 745 53 c 0
 745 26 715 -0 686 -3 c 0
 646 -7 605 -9 568 -9 c 0
 521 -9 478 -6 444 -3 c 0
 384 3 374 -2 316 17 c 0
EndSplineSet
Validated: 1
EndChar

StartChar: nine
Encoding: 57 57 41
Width: 693
VWidth: 0
Flags: HW
LayerCount: 2
Back
Fore
SplineSet
445 579 m 0
 392 613 379 617 321 636 c 0
 290 646 259 658 221 670 c 0
 213 673 206 674 199 674 c 0
 187 674 179 669 179 660 c 0
 179 653 183 645 194 635 c 0
 220 611 235 599 265 579 c 0
 316 544 345 537 403 518 c 24
 440 506 471 497 509 497 c 0
 518 497 512 512 506 519 c 24
 486 546 480 557 445 579 c 0
57 54 m 0
 34 62 6 72 6 94 c 0
 6 96 6 98 7 101 c 8
 18 141 50 160 90 170 c 16
 95 171 99 172 103 172 c 0
 130 172 150 150 179 150 c 0
 181 150 183 150 186 150 c 8
 278 162 334 174 418 214 c 24
 491 249 534 276 582 339 c 16
 588 346 590 354 590 362 c 0
 590 378 580 395 569 410 c 0
 564 417 558 419 551 419 c 0
 543 419 534 416 526 416 c 0
 524 416 521 417 519 417 c 8
 411 439 342 425 245 477 c 0
 150 529 51 610 39 673 c 0
 39 674 39 676 39 678 c 0
 39 700 63 733 81 741 c 0
 119 759 149 767 183 767 c 0
 200 767 219 765 240 761 c 0
 351 741 409 721 490 641 c 0
 567 565 606 524 660 422 c 0
 673 397 687 366 687 337 c 0
 687 324 684 311 676 299 c 0
 614 208 577 163 482 108 c 0
 389 54 325 44 217 30 c 16
 204 28 192 27 180 27 c 0
 138 27 104 38 57 54 c 0
EndSplineSet
Validated: 1
EndChar

StartChar: question
Encoding: 63 63 42
Width: 670
VWidth: 0
Flags: HW
LayerCount: 2
Back
Fore
SplineSet
370 40 m 0
 399 36 414 8 414 -21 c 0
 414 -22 414 -23 414 -24 c 0
 413 -47 394 -68 371 -68 c 0
 369 -68 368 -68 366 -68 c 0
 329 -63 288 -46 288 -9 c 0
 288 -9 288 -8 288 -8 c 0
 289 25 323 41 357 41 c 0
 361 41 366 41 370 40 c 0
318 224 m 0
 341 220 357 219 370 219 c 0
 390 219 401 222 417 226 c 0
 430 229 454 231 475 231 c 0
 489 231 502 230 511 228 c 0
 534 221 553 200 553 176 c 0
 553 175 553 175 553 174 c 0
 552 148 530 135 505 125 c 0
 496 121 483 120 468 120 c 0
 413 120 329 138 317 141 c 0
 272 153 270 143 213 210 c 0
 200 225 195 241 195 258 c 0
 195 288 212 321 235 348 c 8
 315 443 355 456 490 539 c 0
 514 554 531 572 531 599 c 0
 531 600 531 602 531 603 c 8
 530 639 518 672 483 680 c 0
 425 693 393 704 364 704 c 0
 334 704 308 691 261 652 c 0
 223 622 195 588 171 549 c 0
 163 537 149 531 132 531 c 0
 112 531 90 539 72 557 c 0
 66 563 64 570 64 577 c 0
 64 609 108 656 137 692 c 0
 197 767 237 801 313 801 c 0
 329 801 347 799 367 796 c 0
 474 780 553 766 617 679 c 16
 631 660 637 639 637 618 c 0
 637 577 615 536 581 506 c 0
 465 404 423 402 328 326 c 24
 304 306 282 293 279 262 c 16
 279 261 279 259 279 258 c 0
 279 239 298 228 318 224 c 0
EndSplineSet
Validated: 1
EndChar

StartChar: quotesingle
Encoding: 39 39 43
Width: 244
VWidth: 0
Flags: HW
LayerCount: 2
Back
Fore
SplineSet
106 803 m 0
 105 806 104 809 104 811 c 0
 104 830 130 838 147 838 c 0
 164 838 182 828 185 814 c 0
 188 804 189 794 189 784 c 0
 187 684 161 676 111 638 c 0
 100 629 86 625 73 625 c 0
 51 625 31 636 25 656 c 0
 24 660 23 664 23 668 c 0
 23 697 114 695 114 764 c 0
 114 775 111 788 106 803 c 0
EndSplineSet
Validated: 1
EndChar
